<?xml version="1.0" encoding="utf-8"?>
<!-- Generator: Adobe Illustrator 23.0.0, SVG Export Plug-In . SVG Version: 6.00 Build 0)  -->
<svg version="1.1" id="Layer_1" xmlns="http://www.w3.org/2000/svg" xmlns:xlink="http://www.w3.org/1999/xlink" x="0px" y="0px"
	 viewBox="0 0 204.7 62.8" style="enable-background:new 0 0 204.7 62.8;" xml:space="preserve">
<style type="text/css">
	.st0{fill:#E31E24;}
</style>
<g id="Group_44833" transform="translate(-160 -118.838)">
	<path id="Path_177" class="st0" d="M359.7,127.8h0.8c0.3,0,0.6,0,0.8-0.2c0.1-0.1,0.2-0.3,0.2-0.5c0-0.1,0-0.2-0.1-0.3
		c-0.1-0.1-0.2-0.2-0.3-0.2c-0.2-0.1-0.5-0.1-0.7-0.1h-0.8V127.8z M359,130.2v-4.3h1.5c0.4,0,0.7,0,1.1,0.1c0.2,0.1,0.4,0.2,0.5,0.4
		c0.1,0.2,0.2,0.4,0.2,0.6c0,0.3-0.1,0.6-0.3,0.8c-0.2,0.2-0.6,0.4-0.9,0.4c0.1,0.1,0.3,0.1,0.4,0.2c0.2,0.3,0.5,0.5,0.6,0.8
		l0.5,0.8h-0.8l-0.4-0.7c-0.2-0.4-0.4-0.7-0.7-1c-0.2-0.1-0.4-0.2-0.6-0.1h-0.4v1.8L359,130.2z M360.8,124.7c-0.6,0-1.1,0.2-1.6,0.4
		c-0.5,0.3-1,0.7-1.2,1.2c-0.3,0.5-0.4,1.1-0.4,1.7c0,0.6,0.2,1.1,0.4,1.6c0.3,0.5,0.7,0.9,1.2,1.2c1,0.6,2.3,0.6,3.3,0
		c0.5-0.3,0.9-0.7,1.2-1.2c0.6-1,0.6-2.3,0-3.3c-0.3-0.5-0.7-0.9-1.2-1.2C361.9,124.8,361.3,124.7,360.8,124.7 M360.8,124
		c0.7,0,1.4,0.2,2,0.5c0.6,0.3,1.1,0.8,1.5,1.5c0.3,0.6,0.5,1.3,0.5,2c0,0.7-0.2,1.4-0.5,2c-0.3,0.6-0.8,1.1-1.5,1.5
		c-1.2,0.7-2.7,0.7-4,0c-0.6-0.3-1.1-0.9-1.5-1.5c-0.7-1.2-0.7-2.7,0-4c0.3-0.6,0.9-1.1,1.5-1.5C359.4,124.2,360.1,124,360.8,124
		 M326.8,178.5v-0.8h0.4c1.1,0.1,2.1-0.1,3.1-0.5c0.6-0.3,1-1,0.9-1.7v-12.8c0-0.7-0.3-1.4-0.9-1.7c-1-0.4-2-0.5-3.1-0.4h-0.4v-0.8
		h28v5.7h-1.3c-0.5-1.6-1.7-3-3.3-3.6c-1.4-0.6-4.1-0.9-8.1-0.9h-0.4c-0.7-0.1-1.5,0-2.2,0.2c-0.4,0.2-0.6,0.6-0.6,1.3v5.9h0.6
		c1.7,0.1,3.4-0.1,5-0.7c1.1-0.8,1.9-1.9,2.2-3.2h1.3v9.4h-1.3c-0.4-1.3-1.2-2.5-2.2-3.4c-1.6-0.6-3.3-0.9-5-0.8h-0.6v5.9
		c0,0.9,0.2,1.4,0.6,1.6c0.9,0.4,1.9,0.5,2.9,0.5c2.7,0.1,5.4-0.3,8-1c2.1-0.8,4-2.1,5.4-3.9l1.2,0.2l-1.1,2.9l-1.1,2.9L326.8,178.5
		L326.8,178.5z M304.5,168.8h1.6c2.5,0,4.3-0.3,5.3-1c1.1-0.7,1.7-1.9,1.6-3.2c0-1.1-0.5-2.2-1.5-2.8c-1.3-0.7-2.8-1-4.2-0.9
		c-0.8-0.1-1.5,0-2.2,0.2c-0.4,0.2-0.6,0.6-0.6,1.3L304.5,168.8z M296.6,175.4v-12.8c0-0.7-0.3-1.4-0.9-1.7c-1-0.4-2-0.5-3.1-0.4
		h-0.4v-0.8h15.7c4.6,0,8,0.4,10.3,1.3c2.3,0.9,3.4,2.2,3.4,3.9c0,1.6-1.3,2.9-4,3.8c-1.1,0.4-2.3,0.6-3.4,0.7l7,6.1
		c0.7,0.7,1.6,1.3,2.5,1.7c0.7,0.3,1.5,0.5,2.2,0.5h0.2v0.8h-9.9l-10.5-8.7h-1.2v5.6c-0.1,0.7,0.3,1.4,0.9,1.7c1,0.4,2,0.6,3.1,0.5
		h0.5v0.8h-16.7v-0.8h0.4c1.1,0.1,2.1-0.1,3.1-0.5C296.4,176.8,296.7,176.2,296.6,175.4 M271.7,175.4v-14.6h-0.2
		c-2.2-0.1-4.3,0.2-6.3,1.1c-1.4,0.7-2.5,2-2.7,3.6h-1.6v-5.9h29.4v5.9h-1.4c-0.3-1.6-1.3-2.9-2.7-3.6c-2-0.8-4.1-1.2-6.2-1.1h-0.3
		v14.6c0,0.9,0.3,1.5,0.9,1.7c1,0.4,2,0.6,3,0.5h0.5v0.8h-16.5v-0.8h0.5c1,0.1,2-0.1,2.9-0.5C271.4,176.9,271.8,176.2,271.7,175.4
		 M232.2,174.8c-0.1,0.8,0.2,1.6,0.8,2.2c1,0.5,2,0.7,3.1,0.7h0.4v0.8h-10.8v-0.8h0.4c1.1,0,2.1-0.2,3.1-0.7c0.6-0.5,1-1.3,0.9-2.2
		v-12.4c-0.4-0.2-1.3-0.7-2.5-1.5c-0.6-0.3-1.3-0.4-2-0.4h-0.1v-0.8h10.4l17.1,11.9v-8.2c0.1-0.8-0.3-1.6-0.9-2.2
		c-0.9-0.5-2-0.8-3.1-0.7h-0.4v-0.8h10.8v0.8H259c-1.1-0.1-2.1,0.2-3.1,0.7c-0.6,0.6-0.9,1.4-0.9,2.2V179h-1.3l-21.6-15.1
		L232.2,174.8z M193.5,178.5v-0.8h0.4c1.1,0.1,2.1-0.1,3.1-0.5c0.6-0.3,1-1,0.9-1.7v-12.8c0-0.7-0.3-1.4-0.9-1.7
		c-1-0.4-2-0.5-3.1-0.4h-0.4v-0.8h28.1v5.7h-1.4c-0.5-1.6-1.7-3-3.3-3.6c-1.4-0.6-4.1-0.9-8.1-0.9h-0.4c-0.7-0.1-1.5,0-2.2,0.2
		c-0.4,0.3-0.7,0.8-0.6,1.3v5.9h0.6c1.7,0.1,3.4-0.1,5-0.7c1.1-0.8,1.9-1.9,2.2-3.2h1.3v9.4h-1.3c-0.4-1.3-1.2-2.5-2.3-3.4
		c-1.5-0.6-3.2-0.9-4.9-0.8h-0.6v5.9c0,0.9,0.2,1.4,0.7,1.6c0.9,0.4,1.9,0.5,2.9,0.5c2.7,0.1,5.4-0.3,8-1c2.1-0.8,4-2.1,5.4-3.9
		l1.2,0.2l-1.1,2.9l-1.1,2.9L193.5,178.5L193.5,178.5z M326.6,151c-0.1,0.8,0.2,1.7,0.8,2.2c1,0.5,2.1,0.7,3.2,0.5
		c4.6-0.2,8-1.4,10.3-3.5c2.4-2.4,3.6-6.1,3.6-11.2c0-4.7-1.2-8.4-3.5-11c-2.4-2.5-5.9-3.7-10.4-3.7c-1.1-0.1-2.2,0.1-3.2,0.6
		c-0.6,0.6-0.9,1.4-0.8,2.2L326.6,151z M315.3,150.4v-22.7c0.1-1.2-0.4-2.3-1.3-3c-1.4-0.7-2.9-1-4.4-0.9h-0.7v-1.3H332
		c7.8,0,13.7,1.4,17.9,4.4c4.2,2.7,6.7,7.3,6.5,12.3c0,5.3-2.4,9.4-7,12.3c-4.7,3-11.2,4.4-19.5,4.4H309v-1.4h0.6
		c1.5,0.1,3.1-0.2,4.4-0.9C314.9,152.7,315.4,151.6,315.3,150.4 M276.7,151c0,1.1,0.2,1.9,0.8,2.2c1,0.5,2.1,0.7,3.2,0.5
		c4.6-0.2,8-1.4,10.3-3.5c2.4-2.3,3.6-6,3.6-11.2c0-4.8-1.2-8.5-3.5-11c-2.4-2.5-5.8-3.7-10.3-3.7c-1.1-0.1-2.2,0.1-3.3,0.6
		c-0.6,0.3-0.8,1.1-0.8,2.2V151z M265.4,150.4v-22.7c0.1-1.2-0.4-2.3-1.3-3c-1.4-0.7-2.9-1-4.4-0.9H259v-1.3H282
		c7.7,0,13.7,1.4,18,4.4c4.1,2.7,6.6,7.3,6.4,12.3c0,5.3-2.4,9.4-7,12.3c-4.7,3-11.2,4.4-19.5,4.4H259v-1.4h0.6
		c1.5,0.1,3.1-0.2,4.4-0.9C265,152.7,265.5,151.6,265.4,150.4 M222.3,143.8h12.9l-6.7-11.3h-0.1L222.3,143.8z M215,150.4l16.9-28.9
		h1.9l17.7,28.9c0.6,1.2,1.5,2.2,2.5,3c0.9,0.7,1.9,1,3,0.9h0.3v1.4h-22.8v-1.4h0.7c2.1,0,3.5-0.3,4.2-1c0.6-0.6,0.6-1.6-0.2-3
		l-2.6-4.3H221l-2.4,4.3c-0.7,1.3-0.7,2.2,0,2.8c0.8,0.7,2.3,1.1,4.7,1.2h0.7v1.4h-14.6v-1.4h0.4c1,0,2-0.4,2.8-1
		C213.6,152.6,214.4,151.5,215,150.4 M205,149.4c-2.5,2.4-5.5,4.2-8.8,5.3c-3.6,1.2-7.4,1.8-11.2,1.7c-7.1,0-12.9-1.7-17.4-5
		c-4.6-3.2-6.9-7.3-6.9-12.4c0-5,2.3-9.1,6.9-12.5c4.6-3.3,10.4-5,17.4-5c4.1-0.1,8.1,0.6,12,1.9c0.9,0.4,2,0.5,3,0.2
		c0.9-0.1,1.6-0.8,1.8-1.6l0.2-0.5h1.9v12.1H202c-1.2-3-3.4-5.6-6.1-7.4c-3-1.7-6.3-2.6-9.8-2.6c-4.3,0-7.6,1.3-9.9,4
		c-2.3,2.6-3.5,6.3-3.5,11.1c0,4.8,1.2,8.5,3.5,11.1c2.3,2.6,5.7,4,9.9,4c3,0,6-0.4,8.8-1.4c2.8-1,5.5-2.5,7.8-4.3L205,149.4z
		 M190.7,174.9c-1.9,1.3-3.9,2.3-6.1,3c-2.5,0.7-5.1,1-7.8,1c-5,0-8.9-0.9-12-2.8c-3.3-1.9-4.9-4.2-4.9-7s1.6-5.1,4.9-6.9
		c3.1-1.9,7-2.8,12-2.8c2.8,0,5.6,0.3,8.4,1c0.7,0.2,1.4,0.3,2.1,0.2c0.5-0.1,0.9-0.4,1.2-0.9l0.2-0.3h1.3v6.7h-1.3
		c-1-1.8-2.5-3.2-4.3-4.1c-2.1-1.1-4.4-1.6-6.7-1.5c-2.5-0.1-5,0.7-7,2.2c-1.7,1.7-2.5,4-2.4,6.3c-0.1,2.3,0.8,4.6,2.4,6.2
		c2,1.6,4.4,2.4,7,2.3c2.1,0,4.1-0.3,6.1-0.8c1.9-0.5,3.8-1.3,5.4-2.4L190.7,174.9z"/>
</g>
</svg>
