<svg width="377" height="35" fill="none" xmlns="http://www.w3.org/2000/svg"><path d="M376 26.25h-10.586c-.464 0-.909.184-1.237.513l-7.414 7.414a.251.251 0 0 1-.177.073H20.414a.25.25 0 0 1-.177-.073l-7.414-7.415a1.75 1.75 0 0 0-1.237-.512H1A.25.25 0 0 1 .75 26V7.414a.25.25 0 0 1 .427-.177l2 2a1.75 1.75 0 0 0 1.237.513h98.35c.272 0 .54-.063.783-.185l7.577-3.789a.251.251 0 0 1 .112-.026h259.35c.464 0 .909-.184 1.237-.513l4-4a.25.25 0 0 1 .427.177V26a.25.25 0 0 1-.25.25Z" fill="#030A17"/><path d="M376 26.25h-10.586c-.464 0-.909.184-1.237.513l-7.414 7.414a.251.251 0 0 1-.177.073H20.414a.25.25 0 0 1-.177-.073l-7.414-7.415a1.75 1.75 0 0 0-1.237-.512H1A.25.25 0 0 1 .75 26V7.414a.25.25 0 0 1 .427-.177l2 2a1.75 1.75 0 0 0 1.237.513h98.35c.272 0 .54-.063.783-.185l7.577-3.789a.251.251 0 0 1 .112-.026h259.35c.464 0 .909-.184 1.237-.513l4-4a.25.25 0 0 1 .427.177V26a.25.25 0 0 1-.25.25Z" fill="#00E0FF" fill-opacity=".1"/><path d="M376 26.25h-10.586c-.464 0-.909.184-1.237.513l-7.414 7.414a.251.251 0 0 1-.177.073H20.414a.25.25 0 0 1-.177-.073l-7.414-7.415a1.75 1.75 0 0 0-1.237-.512H1A.25.25 0 0 1 .75 26V7.414a.25.25 0 0 1 .427-.177l2 2a1.75 1.75 0 0 0 1.237.513h98.35c.272 0 .54-.063.783-.185l7.577-3.789a.251.251 0 0 1 .112-.026h259.35c.464 0 .909-.184 1.237-.513l4-4a.25.25 0 0 1 .427.177V26a.25.25 0 0 1-.25.25Z" stroke="#00E0FF" stroke-width="1.5"/></svg>