<svg width="377" height="35" fill="none" xmlns="http://www.w3.org/2000/svg"><path d="M1 8.75h10.586c.464 0 .909-.184 1.237-.513L20.237.823a.25.25 0 0 1 .177-.073h336.172c.066 0 .13.026.177.073l7.414 7.414c.328.329.773.513 1.237.513H376a.25.25 0 0 1 .25.25v18.586a.25.25 0 0 1-.427.177l-2-2a1.749 1.749 0 0 0-1.237-.513h-98.35c-.272 0-.54.063-.783.185l-7.577 3.789a.25.25 0 0 1-.112.026H6.414c-.464 0-.909.184-1.237.513l-4 4a.25.25 0 0 1-.427-.177V9A.25.25 0 0 1 1 8.75Z" fill="#030A17"/><path d="M1 8.75h10.586c.464 0 .909-.184 1.237-.513L20.237.823a.25.25 0 0 1 .177-.073h336.172c.066 0 .13.026.177.073l7.414 7.414c.328.329.773.513 1.237.513H376a.25.25 0 0 1 .25.25v18.586a.25.25 0 0 1-.427.177l-2-2a1.749 1.749 0 0 0-1.237-.513h-98.35c-.272 0-.54.063-.783.185l-7.577 3.789a.25.25 0 0 1-.112.026H6.414c-.464 0-.909.184-1.237.513l-4 4a.25.25 0 0 1-.427-.177V9A.25.25 0 0 1 1 8.75Z" fill="#00E0FF" fill-opacity=".1"/><path d="M1 8.75h10.586c.464 0 .909-.184 1.237-.513L20.237.823a.25.25 0 0 1 .177-.073h336.172c.066 0 .13.026.177.073l7.414 7.414c.328.329.773.513 1.237.513H376a.25.25 0 0 1 .25.25v18.586a.25.25 0 0 1-.427.177l-2-2a1.749 1.749 0 0 0-1.237-.513h-98.35c-.272 0-.54.063-.783.185l-7.577 3.789a.25.25 0 0 1-.112.026H6.414c-.464 0-.909.184-1.237.513l-4 4a.25.25 0 0 1-.427-.177V9A.25.25 0 0 1 1 8.75Z" stroke="#00E0FF" stroke-width="1.5"/></svg>